<svg width="80" height="80" viewBox="0 0 80 80" xmlns="http://www.w3.org/2000/svg">
  <!-- 罗小黑身体 -->
  <ellipse cx="40" cy="58" rx="16" ry="10" fill="#000000"/>
  
  <!-- 罗小黑头部 -->
  <circle cx="40" cy="35" r="22" fill="#000000"/>
  
  <!-- 罗小黑耳朵 -->
  <path d="M 22 18 Q 18 12 25 15 Q 30 18 28 25" fill="#000000"/>
  <path d="M 58 18 Q 62 12 55 15 Q 50 18 52 25" fill="#000000"/>
  
  <!-- 罗小黑眼睛外圈 -->
  <ellipse cx="30" cy="30" rx="9" ry="12" fill="#ffffff"/>
  <ellipse cx="50" cy="30" rx="9" ry="12" fill="#ffffff"/>
  
  <!-- 罗小黑眼睛内圈 -->
  <ellipse cx="30" cy="32" rx="7" ry="10" fill="#000000"/>
  <ellipse cx="50" cy="32" rx="7" ry="10" fill="#000000"/>
  
  <!-- 罗小黑眼睛高光 -->
  <ellipse cx="28" cy="28" rx="2" ry="3" fill="#ffffff" opacity="0.8"/>
  <ellipse cx="48" cy="28" rx="2" ry="3" fill="#ffffff" opacity="0.8"/>
  
  <!-- 罗小黑鼻子 -->
  <ellipse cx="40" cy="42" rx="1.5" ry="1" fill="#333333"/>
  
  <!-- 罗小黑嘴巴 -->
  <path d="M 40 44 Q 37 46 35 45" stroke="#333333" stroke-width="1" fill="none" stroke-linecap="round"/>
  <path d="M 40 44 Q 43 46 45 45" stroke="#333333" stroke-width="1" fill="none" stroke-linecap="round"/>
  
  <!-- 罗小黑尾巴 -->
  <path d="M 56 58 Q 68 55 72 45 Q 75 38 72 32 Q 70 28 68 30" stroke="#000000" stroke-width="6" fill="none" stroke-linecap="round"/>
  
  <!-- 罗小黑爪子 -->
  <ellipse cx="32" cy="68" rx="3" ry="2" fill="#000000"/>
  <ellipse cx="48" cy="68" rx="3" ry="2" fill="#000000"/>
</svg>